<svg width="14" height="13" viewBox="0 0 14 13" fill="none" xmlns="http://www.w3.org/2000/svg">
<path d="M13.3084 0.246537C13.0272 -0.0346936 12.5712 -0.0346936 12.29 0.246537L7.03711 5.49941L1.78426 0.246537C1.50304 -0.0346936 1.04708 -0.0346936 0.765854 0.246537C0.484624 0.52776 0.484624 0.983722 0.765854 1.26494L6.01871 6.51781L0.765869 11.7706C0.484638 12.0519 0.484638 12.5078 0.765869 12.7891C1.04709 13.0703 1.50305 13.0703 1.78428 12.7891L7.03711 7.53621L12.29 12.7891C12.5712 13.0703 13.0272 13.0703 13.3084 12.7891C13.5896 12.5078 13.5896 12.0519 13.3084 11.7707L8.05551 6.51781L13.3084 1.26494C13.5896 0.983722 13.5896 0.52776 13.3084 0.246537Z" fill="white"/>
</svg>
