<svg width="34" height="40" viewBox="0 0 34 40" fill="none" xmlns="http://www.w3.org/2000/svg">
<g filter="url(#filter0_f_182_20)">
<path d="M11.6048 28.2775C6.73778 20.2829 6.7145 9.81529 7.19758 6.43598C10.525 7.19851 20.2862 10.9788 26 18.3919C21.6235 17.0089 18.0592 17.2623 15.7306 18.8615C13.4019 20.4606 11.8856 23.6962 11.6048 28.2775Z" fill="white"/>
<path d="M11.6048 28.2775C6.73778 20.2829 6.7145 9.81529 7.19758 6.43598C10.525 7.19851 20.2862 10.9788 26 18.3919C21.6235 17.0089 18.0592 17.2623 15.7306 18.8615C13.4019 20.4606 11.8856 23.6962 11.6048 28.2775Z" stroke="white" stroke-width="2"/>
</g>
<g filter="url(#filter1_d_182_20)">
<path d="M11.6048 28.2775C6.73778 20.2829 6.7145 9.81529 7.19758 6.43598C10.525 7.19851 20.2862 10.9788 26 18.3919C21.6235 17.0089 18.0592 17.2623 15.7306 18.8615C13.4019 20.4606 11.8856 23.6962 11.6048 28.2775Z" fill="black"/>
<path d="M11.6048 28.2775C6.73778 20.2829 6.7145 9.81529 7.19758 6.43598C10.525 7.19851 20.2862 10.9788 26 18.3919C21.6235 17.0089 18.0592 17.2623 15.7306 18.8615C13.4019 20.4606 11.8856 23.6962 11.6048 28.2775Z" stroke="white" stroke-width="2"/>
</g>
<defs>
<filter id="filter0_f_182_20" x="0.99707" y="0.218506" width="32.7407" height="36.3013" filterUnits="userSpaceOnUse" color-interpolation-filters="sRGB">
<feFlood flood-opacity="0" result="BackgroundImageFix"/>
<feBlend mode="normal" in="SourceGraphic" in2="BackgroundImageFix" result="shape"/>
<feGaussianBlur stdDeviation="2.5" result="effect1_foregroundBlur_182_20"/>
</filter>
<filter id="filter1_d_182_20" x="1.99707" y="5.21851" width="30.7407" height="34.3013" filterUnits="userSpaceOnUse" color-interpolation-filters="sRGB">
<feFlood flood-opacity="0" result="BackgroundImageFix"/>
<feColorMatrix in="SourceAlpha" type="matrix" values="0 0 0 0 0 0 0 0 0 0 0 0 0 0 0 0 0 0 127 0" result="hardAlpha"/>
<feOffset dy="4"/>
<feGaussianBlur stdDeviation="2"/>
<feComposite in2="hardAlpha" operator="out"/>
<feColorMatrix type="matrix" values="0 0 0 0 0 0 0 0 0 0 0 0 0 0 0 0 0 0 0.25 0"/>
<feBlend mode="normal" in2="BackgroundImageFix" result="effect1_dropShadow_182_20"/>
<feBlend mode="normal" in="SourceGraphic" in2="effect1_dropShadow_182_20" result="shape"/>
</filter>
</defs>
</svg>
