<svg width="58" height="59" viewBox="0 0 58 59" fill="none" xmlns="http://www.w3.org/2000/svg">
<path d="M29.5286 0C13.2347 0 0 13.2219 0 29.5C0 45.7781 13.2347 59 29.5286 59C42.2619 59 50.0352 53.1481 54.0823 45.8933C58.1295 38.6386 58.641 30.1163 57.4123 24.2894L57.1716 23.2874H56.1686L29.5286 23.2473H28.2448V36.5944H42.9289C40.7122 41.7249 36.1987 45.252 29.5286 45.252C20.8125 45.252 13.7613 38.2077 13.7613 29.5C13.7613 20.7923 20.8125 13.748 29.5286 13.748C33.4454 13.748 37.0011 15.1959 39.7593 17.5557L40.6821 18.3173L49.4685 9.5394L50.3913 8.57745L49.4284 7.69565C44.1826 2.92094 37.1816 0 29.5286 0ZM29.5286 2.56522C36.0432 2.56522 41.9208 4.94506 46.5798 8.77785L40.4013 14.9504C37.3471 12.6708 33.636 11.1827 29.5286 11.1827C19.4233 11.1827 11.1936 19.4045 11.1936 29.5C11.1936 39.5955 19.4233 47.8173 29.5286 47.8173C37.9389 47.8173 43.987 42.6668 46.1385 35.6726L46.6601 34.0292H30.8125V25.8125L55.0051 25.8526C55.8577 31.0281 55.291 38.4582 51.8356 44.6508C48.1646 51.2242 41.4946 56.4348 29.5286 56.4348C14.6189 56.4348 2.56771 44.3903 2.56771 29.5C2.56771 14.6097 14.6189 2.56522 29.5286 2.56522Z" fill="#3A3535"/>
</svg>
