<svg width="55" height="55" viewBox="0 0 55 55" fill="none" xmlns="http://www.w3.org/2000/svg">
<circle cx="27.5" cy="27.5" r="27.5" fill="#420063"/>
<g clip-path="url(#clip0_76_178)">
<path d="M23.6459 15.1666C22.7951 15.1666 22.1042 15.8587 22.1042 16.7081C22.1042 17.5603 22.7938 18.2497 23.6459 18.2497H24.4167C24.8423 18.2497 25.1875 17.9047 25.1875 17.4791V16.7081C25.1875 15.8604 24.4938 15.1666 23.6459 15.1666Z" fill="white" stroke="white" stroke-width="0.390625"/>
<path d="M31.3538 15.1666C30.5059 15.1666 29.8123 15.8604 29.8123 16.7081V17.4791C29.8123 17.9048 30.1575 18.2498 30.5833 18.2498H31.3539C32.2061 18.2498 32.8956 17.5604 32.8956 16.7082C32.8956 15.8587 32.2046 15.1666 31.3538 15.1666Z" fill="white" stroke="white" stroke-width="0.390625"/>
<path d="M45.2291 41.3749H42.454V25.9579H42.9166C43.3422 25.9579 43.6874 25.6128 43.6874 25.1871V20.5623C43.6874 20.1367 43.3422 19.7914 42.9166 19.7914H34.7975C35.5315 18.9726 35.9789 17.8918 35.9789 16.7081C35.9789 14.158 33.9041 12.0834 31.3539 12.0834C29.7468 12.0834 28.3291 12.9078 27.5 14.1554C26.6708 12.9078 25.2532 12.0834 23.646 12.0834C21.0958 12.0834 19.0211 14.158 19.0211 16.7081C19.0211 17.8917 19.4686 18.9726 20.2025 19.7914H12.0832C11.6575 19.7914 11.3124 20.1367 11.3124 20.5623V25.1871C11.3124 25.6128 11.6575 25.9579 12.0832 25.9579H12.5459V41.3749H9.77086C9.34514 41.3749 9 41.7201 9 42.1457C9 42.5714 9.34514 42.9166 9.77086 42.9166H13.3167H23.6459H31.3539H41.6832H45.2292C45.6549 42.9166 46.0001 42.5714 46.0001 42.1457C46 41.7201 45.6549 41.3749 45.2291 41.3749ZM22.8751 41.3749H17.1709V34.4374C17.1709 34.0118 16.8257 33.6666 16.4 33.6666C15.9743 33.6666 15.6291 34.0118 15.6291 34.4374V41.3749H14.0875V25.9579H22.8751V41.3749ZM22.8751 24.4163H13.3167H12.8541V21.3332H22.8751V24.4163ZM20.5627 16.7082C20.5627 15.0082 21.9458 13.6251 23.6459 13.6251C25.346 13.6251 26.7291 15.0081 26.7291 16.7082V19.7915H23.6459C21.9458 19.7915 20.5627 18.4083 20.5627 16.7082ZM30.5831 41.3749H24.4168V25.9579H30.5831V41.3749ZM30.5831 24.4163H24.4168V21.3332H27.5H30.5831V24.4163H30.5831ZM28.2708 19.7915V16.7082C28.2708 15.0082 29.6538 13.6251 31.3539 13.6251C33.054 13.6251 34.4373 15.0081 34.4373 16.7082C34.4373 18.4084 33.0541 19.7915 31.3539 19.7915H28.2708ZM40.9124 41.3749H32.1247V25.9579H37.8289V32.8958C37.8289 33.3215 38.1741 33.6667 38.5998 33.6667C39.0255 33.6667 39.3706 33.3215 39.3706 32.8958V25.9579H40.9124V41.3749H40.9124ZM42.1457 24.4163H41.6831H32.1247V21.3332H42.1457V24.4163Z" fill="white" stroke="white" stroke-width="0.390625"/>
<path d="M16.4 32.6648C16.8257 32.6648 17.1709 32.3195 17.1709 31.8939V31.4313C17.1709 31.0056 16.8257 30.6604 16.4 30.6604C15.9743 30.6604 15.6292 31.0056 15.6292 31.4313V31.8939C15.6292 32.3196 15.9743 32.6648 16.4 32.6648Z" fill="white" stroke="white" stroke-width="0.390625"/>
<path d="M38.5997 34.6683C38.1741 34.6683 37.8289 35.0135 37.8289 35.4392V35.9015C37.8289 36.3272 38.1741 36.6724 38.5997 36.6724C39.0254 36.6724 39.3706 36.3272 39.3706 35.9015V35.4392C39.3706 35.0135 39.0255 34.6683 38.5997 34.6683Z" fill="white" stroke="white" stroke-width="0.390625"/>
</g>
<defs>
<clipPath id="clip0_76_178">
<rect width="37" height="37" fill="white" transform="translate(9 9)"/>
</clipPath>
</defs>
</svg>
