<svg width="55" height="55" viewBox="0 0 55 55" fill="none" xmlns="http://www.w3.org/2000/svg">
<circle cx="27.5" cy="27.5" r="27.5" fill="#420063"/>
<g clip-path="url(#clip0_76_138)">
<path d="M32.1769 19.0502C30.5551 18.828 28.7946 18.9061 27.086 19.2763C26.6654 19.3675 26.3984 19.7823 26.4895 20.2029C26.5687 20.5679 26.8914 20.8172 27.2503 20.8172C27.3049 20.8172 27.3605 20.8114 27.4161 20.7993C28.9487 20.4671 30.5216 20.3962 31.9654 20.5939C32.392 20.6525 32.7847 20.3541 32.8431 19.9278C32.9015 19.5015 32.6033 19.1086 32.1769 19.0502Z" fill="white"/>
<path d="M37.8558 23.086C37.4785 23.2929 37.3404 23.7666 37.5473 24.1438C37.6088 24.256 37.6674 24.3697 37.7212 24.482C37.8553 24.7612 38.1338 24.924 38.4241 24.924C38.5372 24.924 38.6521 24.8993 38.7609 24.8471C39.1487 24.6608 39.3122 24.1953 39.1259 23.8074C39.0599 23.6701 38.9884 23.5311 38.9135 23.3945C38.7066 23.0169 38.2327 22.8792 37.8558 23.086Z" fill="white"/>
<path d="M39.0103 25.6688C38.5839 25.7277 38.2862 26.1211 38.3451 26.5472C38.604 28.4211 38.1056 30.2803 36.9418 31.7825C36.6783 32.1226 36.7404 32.6121 37.0806 32.8756C37.2225 32.9856 37.3905 33.0388 37.5572 33.0388C37.7899 33.0388 38.0201 32.935 38.1736 32.7369C39.5964 30.9005 40.2054 28.6266 39.8888 26.334C39.8298 25.9077 39.4363 25.6106 39.0103 25.6688Z" fill="white"/>
<path d="M43.8743 25.1625C43.5387 25.1625 43.2199 25.2349 42.9314 25.3639C42.5101 22.881 41.3356 20.7517 39.4729 19.1268C37.6406 17.5284 35.2375 16.4718 32.469 16.038C32.5767 15.7226 32.6361 15.3851 32.6361 15.0337C32.6361 13.3152 31.2379 11.9171 29.5194 11.9171C27.8009 11.9171 26.4028 13.3152 26.4028 15.0337C26.4028 15.3941 26.4651 15.7402 26.5782 16.0626C25.2704 16.2725 24.0114 16.6141 22.8188 17.0839L18.8712 13.6655C18.6513 13.4751 18.3436 13.4232 18.0734 13.5304C17.803 13.638 17.6151 13.887 17.5859 14.1765L17.0639 19.3645C14.8085 20.6413 13.3771 22.4917 12.6943 25.0089C12.3045 26.4465 12.0566 26.5299 11.2573 26.5974C10.0298 26.7007 9.43542 27.2278 9.15288 27.6518C8.74359 28.266 8.69012 29.0562 8.99385 30.0007L9.89912 32.815C10.3246 34.1373 11.1129 34.4148 11.6994 34.4148H12.5654C14.5794 37.0367 16.4482 37.6602 18.8813 38.2668C18.803 39.2679 18.6664 40.4546 18.5337 41.5244H16.5437C16.1134 41.5244 15.7646 41.8733 15.7646 42.3035C15.7646 42.7338 16.1134 43.0826 16.5437 43.0826H19.221H23.5066H24.8453C25.2756 43.0826 25.6245 42.7338 25.6245 42.3035C25.6245 41.8733 25.2757 41.5244 24.8453 41.5244H24.5478L25.0301 39.8829C26.8995 40.1727 28.8258 40.0386 31.22 39.4532C31.2297 39.5371 31.2396 39.6218 31.2496 39.7077C31.3428 40.5048 31.4485 41.4082 31.4276 42.2851C31.4227 42.4948 31.5025 42.6978 31.6491 42.8479C31.7957 42.998 31.9967 43.0828 32.2065 43.0828H36.7474H39.4247C39.855 43.0828 40.2039 42.7339 40.2039 42.3036C40.2039 41.8733 39.8551 41.5245 39.4247 41.5245H37.7192C38.4184 38.6964 39.7269 35.8425 40.6605 34.6373C42.2609 32.5708 43.1067 30.1028 43.1067 27.4998C43.1067 27.0702 43.4509 26.7207 43.8741 26.7207C44.2973 26.7207 44.6417 27.0702 44.6417 27.4998C44.6417 27.706 44.559 27.9075 44.4149 28.0528C44.1118 28.3582 44.1137 28.8515 44.4192 29.1547C44.5711 29.3056 44.7696 29.3808 44.968 29.3808C45.1683 29.3808 45.3687 29.304 45.521 29.1505C45.9589 28.7093 46.2001 28.1231 46.2001 27.4998C46.2001 26.2111 45.1568 25.1625 43.8743 25.1625ZM29.5195 13.4755C30.3788 13.4755 31.0778 14.1746 31.0778 15.0337C31.0778 15.893 30.3788 16.592 29.5195 16.592C28.6603 16.592 27.9612 15.893 27.9612 15.0337C27.9612 14.1746 28.6603 13.4755 29.5195 13.4755ZM39.4288 33.6831C38.1851 35.2885 36.7861 38.6282 36.1178 41.5245H32.9776C32.9488 40.8214 32.8696 40.144 32.7973 39.5268C32.7507 39.128 32.7066 38.7513 32.6815 38.4118C32.6642 38.1793 32.5437 37.9667 32.353 37.8324C32.1623 37.6981 31.9215 37.6566 31.6968 37.7185C28.8155 38.5154 26.706 38.6675 24.6429 38.2277C24.2441 38.1428 23.8478 38.3792 23.7329 38.7701L22.9235 41.5245H20.1041C20.2623 40.2359 20.4213 38.8035 20.4808 37.7085C20.5011 37.334 20.2518 36.9981 19.8873 36.9092C17.1698 36.2466 15.5295 35.8466 13.5857 33.1771C13.4391 32.9758 13.2049 32.8567 12.9558 32.8567H11.6995C11.5888 32.8567 11.4597 32.5771 11.3827 32.3378L10.4774 29.5237C10.3306 29.0673 10.3208 28.7095 10.4498 28.5159C10.5804 28.32 10.9136 28.1901 11.3883 28.1502C13.1683 28.0001 13.7492 27.0738 14.1985 25.4169C14.9968 22.4737 16.8396 21.2268 18.1563 20.5449C18.39 20.4238 18.5469 20.1929 18.5733 19.931L18.9863 15.8264L22.1613 18.5758C22.3866 18.7708 22.7034 18.8206 22.9774 18.7032C24.3964 18.0968 25.991 17.6807 27.6088 17.4932C28.1369 17.9045 28.7999 18.1504 29.5195 18.1504C30.2493 18.1504 30.9208 17.8976 31.4525 17.4758C36.3951 18.0166 41.5487 20.912 41.5487 27.4999C41.5487 29.7543 40.8157 31.8924 39.4288 33.6831Z" fill="white"/>
<path d="M18.1105 24.3779C17.6812 24.3779 17.3313 24.7281 17.3313 25.1572C17.3313 25.5863 17.6812 25.9363 18.1105 25.9363C18.5396 25.9363 18.8896 25.5863 18.8896 25.1572C18.8897 24.728 18.5396 24.3779 18.1105 24.3779Z" fill="white"/>
<path d="M29.6447 41.5245H28.9175C28.4873 41.5245 28.1384 41.8734 28.1384 42.3037C28.1384 42.7339 28.4873 43.0828 28.9175 43.0828H29.6447C30.0749 43.0828 30.4238 42.734 30.4238 42.3037C30.4238 41.8734 30.075 41.5245 29.6447 41.5245Z" fill="white"/>
</g>
<defs>
<clipPath id="clip0_76_138">
<rect width="37.4" height="37.4" fill="white" transform="translate(8.80005 8.79999)"/>
</clipPath>
</defs>
</svg>
