<svg width="55" height="55" viewBox="0 0 55 55" fill="none" xmlns="http://www.w3.org/2000/svg">
<circle cx="27.5" cy="27.5" r="27.5" fill="#420063"/>
<g clip-path="url(#clip0_76_158)">
<path d="M32.869 22.8685C33.2107 22.5268 33.2107 21.9728 32.869 21.6311C32.5274 21.2894 31.9735 21.2894 31.6315 21.6311L21.131 32.1314C20.7893 32.4731 20.7893 33.0272 21.131 33.3689C21.3019 33.5397 21.5258 33.6252 21.7497 33.6252C21.9735 33.6252 22.1975 33.5397 22.3684 33.3689L32.869 22.8685Z" fill="white"/>
<path d="M24.3749 18.7499C22.4448 18.7499 20.8748 20.3199 20.8748 22.2498C20.8748 24.1799 22.4448 25.7499 24.3749 25.7499C26.305 25.7499 27.8751 24.1799 27.8751 22.2498C27.8751 20.3199 26.3048 18.7499 24.3749 18.7499ZM24.3749 23.9999C23.4099 23.9999 22.6248 23.2148 22.6248 22.2498C22.6248 21.285 23.4099 20.4999 24.3749 20.4999C25.3399 20.4999 26.1251 21.285 26.1251 22.2498C26.125 23.2148 25.3399 23.9999 24.3749 23.9999Z" fill="white"/>
<path d="M29.6251 29.2499C27.6951 29.2499 26.125 30.8201 26.125 32.7501C26.125 34.6799 27.6951 36.25 29.6251 36.25C31.5551 36.25 33.1252 34.68 33.1252 32.7501C33.1252 30.8201 31.5551 29.2499 29.6251 29.2499ZM29.6251 34.4999C28.6602 34.4999 27.875 33.715 27.875 32.7501C27.875 31.7851 28.6601 30.9999 29.6251 30.9999C30.59 30.9999 31.3752 31.785 31.3752 32.7501C31.3752 33.715 30.5901 34.4999 29.6251 34.4999Z" fill="white"/>
<path d="M43.6604 27.5C44.2129 26.5968 44.4211 25.522 44.2343 24.4611C44.0471 23.4003 43.4838 22.4614 42.6556 21.8018C42.866 20.7642 42.694 19.6831 42.1554 18.7499C41.6166 17.8169 40.7662 17.1274 39.7625 16.7908C39.6051 15.7434 39.0737 14.7862 38.2488 14.0941C37.4346 13.4108 36.3939 13.0448 35.3303 13.0718C34.8244 12.1415 33.9975 11.4237 32.9851 11.0551C32.5026 10.8795 31.9995 10.7905 31.4896 10.7905C30.9424 10.7905 30.4009 10.8939 29.8933 11.0927C29.1 10.3916 28.0775 10 27 10C25.9224 10 24.9 10.3916 24.1066 11.0928C23.599 10.8939 23.0575 10.7905 22.5103 10.7905C22.0004 10.7905 21.4973 10.8795 21.0145 11.0553C20.0021 11.4239 19.1752 12.1418 18.6694 13.072C17.6056 13.0456 16.5653 13.411 15.7513 14.0941C14.9259 14.7865 14.3944 15.7437 14.2371 16.7909C13.2333 17.1274 12.3832 17.817 11.8445 18.7499C11.3058 19.6829 11.1337 20.7641 11.344 21.8018C10.5157 22.4616 9.95265 23.4005 9.76595 24.4611C9.57867 25.5219 9.78679 26.5967 10.3393 27.5001C9.78695 28.4032 9.57876 29.4781 9.76587 30.5387C9.95265 31.5995 10.5157 32.5384 11.344 33.1984C11.1338 34.2361 11.3058 35.3174 11.8445 36.2502C12.3829 37.183 13.2332 37.8725 14.2371 38.2093C14.3945 39.2563 14.9259 40.2135 15.7511 40.9059C16.5653 41.5893 17.6065 41.9537 18.6695 41.9281C19.1756 42.8585 20.0024 43.5765 21.0148 43.945C21.4975 44.1207 22.0007 44.2097 22.5105 44.2097C23.0576 44.2097 23.5993 44.1062 24.1067 43.9074C24.9001 44.6085 25.9227 45.0002 27.0001 45.0002C28.0775 45.0002 29.0999 44.6084 29.8932 43.9074C30.4008 44.1063 30.9423 44.2097 31.4895 44.2097C31.9994 44.2097 32.5026 44.1206 32.9853 43.9449C33.9975 43.5765 34.8244 42.8585 35.3304 41.9281C36.3923 41.9534 37.4346 41.5892 38.2488 40.9059C39.0741 40.2135 39.6056 39.2562 39.7628 38.2093C40.7667 37.8725 41.617 37.183 42.1557 36.2502C42.6942 35.3171 42.8661 34.2358 42.6558 33.1981C43.4841 32.5385 44.0473 31.5997 44.2345 30.5387C44.421 29.4778 44.2128 28.4031 43.6604 27.5ZM42.5109 30.2348C42.374 31.0114 41.9006 31.679 41.2125 32.0667C40.8363 32.2785 40.6709 32.733 40.8228 33.1371C41.1009 33.8763 41.0341 34.6921 40.6399 35.375C40.2457 36.0578 39.5726 36.5234 38.7934 36.6526C38.3676 36.7232 38.0568 37.0935 38.0614 37.5251C38.0697 38.3147 37.7279 39.0583 37.1238 39.5653C36.6519 39.9612 36.0537 40.1793 35.4388 40.1794C35.2759 40.1794 35.1121 40.1641 34.9519 40.1342C34.5281 40.0545 34.1091 40.2964 33.9657 40.7035C33.7032 41.4487 33.1277 42.0307 32.387 42.3004C31.6505 42.5685 30.8222 42.4889 30.1509 42.092C29.7794 41.8726 29.3033 41.9563 29.0295 42.29C28.5284 42.9002 27.7887 43.2501 27.0002 43.2501C26.2116 43.2501 25.472 42.9002 24.9709 42.29C24.7994 42.0812 24.5488 41.9702 24.2942 41.9702C24.142 41.9702 23.9884 42.0099 23.8494 42.0921C23.1783 42.4889 22.3496 42.5683 21.6135 42.3005C20.8725 42.0307 20.297 41.4488 20.0345 40.7036C19.8912 40.2967 19.4729 40.0545 19.0484 40.1343C18.8882 40.1643 18.7243 40.1795 18.5615 40.1795C17.9468 40.1795 17.3483 39.9615 16.8764 39.5655C16.2723 39.0585 15.9306 38.3149 15.9389 37.5253C15.9436 37.0938 15.6327 36.7234 15.2069 36.6529C14.4277 36.5237 13.7546 36.0581 13.3604 35.3754C12.9662 34.6924 12.8993 33.8766 13.1771 33.1373C13.3288 32.7334 13.1635 32.2791 12.7876 32.0672C12.0994 31.6793 11.6263 31.0117 11.4896 30.2351C11.3527 29.4585 11.5687 28.6693 12.0826 28.0698C12.3635 27.7422 12.3636 27.2587 12.0828 26.931C11.5688 26.3312 11.3526 25.5418 11.4897 24.7651C11.6264 23.9886 12.0994 23.321 12.7875 22.9332C13.1634 22.7214 13.3289 22.267 13.177 21.8631C12.8991 21.1238 12.966 20.3081 13.3604 19.6253C13.7547 18.9423 14.4276 18.4767 15.2068 18.3478C15.6327 18.2774 15.9435 17.9069 15.9389 17.4753C15.9306 16.6855 16.2723 15.9419 16.8765 15.435C17.3483 15.039 17.9467 14.8209 18.5617 14.8209C18.7245 14.8209 18.8883 14.8361 19.0485 14.866C19.473 14.9457 19.8915 14.7035 20.0347 14.2964C20.2969 13.5517 20.8723 12.9697 21.6134 12.6999C22.3497 12.4319 23.1782 12.5114 23.8495 12.9083C24.2211 13.1279 24.6972 13.0438 24.971 12.7102C25.4717 12.1002 26.2113 11.7504 27.0001 11.7504C27.7889 11.7504 28.5286 12.1003 29.0294 12.7103C29.3032 13.0438 29.779 13.128 30.1509 12.9083C30.822 12.5116 31.6509 12.4322 32.3868 12.6999C33.1278 12.9698 33.7032 13.5517 33.9657 14.2968C34.1091 14.7038 34.5285 14.9453 34.952 14.8661C35.1121 14.8361 35.2759 14.8209 35.4388 14.8209C36.0534 14.8209 36.6519 15.039 37.1239 15.4351C37.7277 15.9416 38.0694 16.6854 38.0614 17.4757C38.057 17.9072 38.3678 18.2774 38.7935 18.3479C39.5726 18.4768 40.2456 18.9424 40.64 19.6253C41.0342 20.3085 41.101 21.124 40.8231 21.863C40.6711 22.267 40.8364 22.7215 41.2126 22.9334C41.9007 23.3211 42.374 23.9889 42.5109 24.7654C42.6478 25.5421 42.4315 26.3314 41.9175 26.9312C41.6367 27.2589 41.6368 27.7423 41.9176 28.07C42.4313 28.6691 42.6476 29.4584 42.5109 30.2348Z" fill="white"/>
<path d="M30.5374 16.6891C30.9966 16.8392 31.4908 16.5889 31.641 16.1295C31.7914 15.6702 31.5409 15.1762 31.0816 15.0258C28.8947 14.3104 26.5489 14.1823 24.2979 14.6559C18.4952 15.8767 14.2169 20.8648 13.8939 26.7859C13.8676 27.2685 14.2374 27.6809 14.7199 27.7073C14.7361 27.7082 14.7523 27.7086 14.7684 27.7086C15.2298 27.7086 15.6159 27.3475 15.6413 26.8812C15.9212 21.7495 19.629 17.4264 24.6581 16.3684C26.609 15.9581 28.6419 16.0689 30.5374 16.6891Z" fill="white"/>
<path d="M39.2798 27.2927C38.796 27.2664 38.3847 27.6363 38.3584 28.1188C38.0785 33.2505 34.3707 37.5734 29.3414 38.6314C27.3909 39.0418 25.3578 38.9311 23.4623 38.3108C23.0032 38.1608 22.509 38.411 22.3586 38.8702C22.2082 39.3295 22.4588 39.8236 22.918 39.9739C24.2404 40.4066 25.6202 40.6245 27.0024 40.6245C27.9065 40.6245 28.8118 40.5312 29.7019 40.3439C35.5045 39.1233 39.7829 34.1352 40.1058 28.2141C40.1321 27.7316 39.7623 27.319 39.2798 27.2927Z" fill="white"/>
<path d="M15.8354 29.6789C15.7427 29.2046 15.2841 28.8951 14.8091 28.9877C14.3348 29.0803 14.0253 29.5398 14.1179 30.014C14.165 30.2554 14.2205 30.502 14.2829 30.7472C14.3837 31.143 14.7397 31.4064 15.1304 31.4064C15.2017 31.4064 15.2744 31.3976 15.3469 31.3792C15.8152 31.26 16.0982 30.7837 15.9791 30.3153C15.9244 30.1021 15.8763 29.888 15.8354 29.6789Z" fill="white"/>
<path d="M38.1643 25.321C38.2459 25.7387 38.6119 26.0285 39.0222 26.0285C39.0778 26.0285 39.1342 26.0232 39.1908 26.012C39.6651 25.9194 39.9745 25.4599 39.8819 24.9856C39.8347 24.744 39.7793 24.4975 39.7169 24.2526C39.5977 23.7843 39.1219 23.501 38.6531 23.6205C38.1848 23.7397 37.9018 24.2159 38.0209 24.6843C38.0752 24.8974 38.1235 25.1115 38.1643 25.321Z" fill="white"/>
</g>
<defs>
<clipPath id="clip0_76_158">
<rect width="42" height="35" fill="white" transform="translate(6 10)"/>
</clipPath>
</defs>
</svg>
