<svg width="55" height="55" viewBox="0 0 55 55" fill="none" xmlns="http://www.w3.org/2000/svg">
<circle cx="27.5" cy="27.5" r="27.5" fill="#420063"/>
<path d="M43.042 24.9006V24.0418C43.042 22.7322 41.9767 21.6668 40.667 21.6668H32.75V17.7082C32.75 17.271 32.3956 16.9165 31.9583 16.9165H29.5832V14.5419C29.5832 14.1047 29.2288 13.7502 28.7915 13.7502H18.0368L16.685 12.3985C16.3759 12.0893 15.8747 12.0893 15.5655 12.3985L11.0472 16.9165H9.79169C9.35447 16.9166 9 17.271 9 17.7082V39.875C9 40.3121 9.35447 40.6667 9.79169 40.6667H13.0379C13.1571 41.2514 13.4056 41.7895 13.7521 42.25H12.1666C11.7294 42.25 11.375 42.6045 11.375 43.0417C11.375 43.4788 11.7294 43.8334 12.1667 43.8334H16.9165C16.9185 43.8334 16.9203 43.8331 16.9223 43.8331C18.8312 43.8303 20.4278 42.4695 20.7951 40.6668H31.9583H35.2052C35.3243 41.2515 35.5729 41.7896 35.9194 42.2501H34.3338C33.8967 42.2501 33.5421 42.6045 33.5421 43.0418C33.5421 43.479 33.8966 43.8334 34.3338 43.8334H39.0836C39.0856 43.8334 39.0875 43.8332 39.0895 43.8332C40.9984 43.8304 42.595 42.4695 42.9624 40.6668H46.2083C46.6455 40.6668 47 40.3124 47 39.8751V32.7501V29.5832C47 27.234 45.2852 25.2788 43.042 24.9006ZM27.9999 15.3336V16.9166H21.2033L19.6202 15.3336H27.9999ZM16.1252 14.0778L17.1486 15.1011C17.1489 15.1014 17.1494 15.1019 17.1497 15.1023L18.9641 16.9166H13.2864L16.1252 14.0778ZM16.9166 42.2498C15.607 42.2498 14.5415 41.1845 14.5415 39.875C14.5415 38.5653 15.607 37.4998 16.9166 37.4998C18.2261 37.4998 19.2915 38.5653 19.2915 39.875C19.2914 41.1845 18.2261 42.2498 16.9166 42.2498ZM31.1666 22.4585V35.9168H25.7826C25.3453 35.9168 24.9909 36.2712 24.9909 36.7084C24.9909 37.1457 25.3453 37.5001 25.7826 37.5001H31.1666V39.0834H20.7951C20.4274 37.2787 18.8281 35.9167 16.9166 35.9167C15.0051 35.9167 13.4056 37.2788 13.0379 39.0834H10.5833V26.4168H13.7499C14.187 26.4168 14.5415 26.0624 14.5415 25.6251C14.5415 25.1878 14.1871 24.8334 13.7499 24.8334H10.5833V23.2501H20.0831C20.5203 23.2501 20.8748 22.8957 20.8748 22.4584C20.8748 22.0212 20.5204 21.6668 20.0831 21.6668H10.5833V18.4998H11.3745C11.3749 18.4998 11.3754 18.4998 11.3757 18.4998H31.1666V22.4585ZM35.2052 39.0834H32.75V37.5001H35.9192C35.5727 37.9606 35.3242 38.4987 35.2052 39.0834ZM41.4586 39.8776C41.4572 41.186 40.3924 42.2498 39.0838 42.2498C37.7742 42.2498 36.7087 41.1845 36.7087 39.875C36.7087 38.5673 37.7708 37.5033 39.0777 37.5H39.0836C39.0843 37.5 39.085 37.4999 39.0857 37.4999C40.3935 37.501 41.4572 38.5647 41.4586 39.8725C41.4586 39.8734 41.4585 39.8741 41.4585 39.875C41.4585 39.8759 41.4586 39.8767 41.4586 39.8776ZM45.4167 39.0834H42.9624C42.5945 37.2787 40.9953 35.9166 39.0838 35.9166C39.0817 35.9166 39.0797 35.9168 39.0777 35.9168H32.7499V23.2502H40.667C41.1035 23.2502 41.4587 23.6054 41.4587 24.0419V24.8335H35.9171C35.4799 24.8335 35.1254 25.1879 35.1254 25.6252V32.7501C35.1254 33.1873 35.4798 33.5418 35.9171 33.5418H45.4167V39.0834ZM38.2921 26.4168V31.9583H36.7088V26.4168H38.2921ZM45.4167 31.9583H39.8754V26.4168H42.2504C43.9963 26.4168 45.4167 27.8372 45.4167 29.5832V31.9583Z" fill="white"/>
<path d="M22.6857 37.5001H23.1799C23.617 37.5001 23.9716 37.1456 23.9716 36.7084C23.9716 36.2712 23.6171 35.9167 23.1799 35.9167H22.6857C22.2485 35.9167 21.894 36.2712 21.894 36.7084C21.894 37.1456 22.2486 37.5001 22.6857 37.5001Z" fill="white"/>
<path d="M22.6857 23.2502H23.1799C23.617 23.2502 23.9716 22.8958 23.9716 22.4585C23.9716 22.0213 23.6171 21.6668 23.1799 21.6668H22.6857C22.2485 21.6668 21.894 22.0212 21.894 22.4585C21.8941 22.8957 22.2486 23.2502 22.6857 23.2502Z" fill="white"/>
</svg>
