<svg width="51" height="50" viewBox="0 0 51 50" fill="none" xmlns="http://www.w3.org/2000/svg">
<rect x="1.81177" y="1" width="43" height="43" rx="14" stroke="white" stroke-width="2"/>
<path d="M23.268 24.167C27.2932 24.167 30.558 20.7389 30.558 16.5125C30.558 12.2861 27.2932 8.88145 23.268 8.88145C19.2429 8.88145 15.978 12.3095 15.978 16.5125C15.978 20.7154 19.2429 24.167 23.268 24.167ZM23.268 10.8773C26.2198 10.8773 28.6349 13.4131 28.6349 16.5125C28.6349 19.6118 26.2198 22.1477 23.268 22.1477C20.3163 22.1477 17.9012 19.6118 17.9012 16.5125C17.9012 13.4131 20.3163 10.8773 23.268 10.8773Z" fill="white"/>
<path d="M10.6559 36.1183H35.9696C36.5063 36.1183 36.9312 35.6722 36.9312 35.1087C36.9312 29.8257 32.839 25.5053 27.7852 25.5053H18.8404C13.8089 25.5053 9.69434 29.8022 9.69434 35.1087C9.69434 35.6722 10.1192 36.1183 10.6559 36.1183ZM18.8404 27.5246H27.7852C31.4525 27.5246 34.4714 30.3892 34.941 34.099H11.6845C12.1541 30.4127 15.173 27.5246 18.8404 27.5246Z" fill="white"/>
</svg>
