<svg width="76" height="76" viewBox="0 0 76 76" fill="none" xmlns="http://www.w3.org/2000/svg">
<rect x="2.5" y="2.5" width="71" height="71" rx="12.5" stroke="white" stroke-width="5"/>
<path d="M37.9245 40.8155C44.7225 40.8155 50.2365 35.0259 50.2365 27.8879C50.2365 20.75 44.7225 15 37.9245 15C31.1264 15 25.6125 20.7897 25.6125 27.8879C25.6125 34.9862 31.1264 40.8155 37.9245 40.8155ZM37.9245 18.3707C42.9097 18.3707 46.9885 22.6534 46.9885 27.8879C46.9885 33.1224 42.9097 37.4052 37.9245 37.4052C32.9392 37.4052 28.8604 33.1224 28.8604 27.8879C28.8604 22.6534 32.9392 18.3707 37.9245 18.3707Z" fill="white"/>
<path d="M16.624 61H59.376C60.2824 61 61 60.2466 61 59.2948C61 50.3724 54.0887 43.0759 45.5534 43.0759H30.4466C21.9491 43.0759 15 50.3328 15 59.2948C15 60.2466 15.7176 61 16.624 61ZM30.4466 46.4862H45.5534C51.7471 46.4862 56.8456 51.3241 57.6388 57.5897H18.3612C19.1544 51.3638 24.2529 46.4862 30.4466 46.4862Z" fill="white"/>
</svg>
