<svg width="312" height="88" viewBox="0 0 312 88" fill="none" xmlns="http://www.w3.org/2000/svg">
<path d="M32.0388 3.04816C35.6064 1.73138 39.093 1 46.4295 1C53.7659 1 57.3936 1.73138 60.9612 3.04816C64.5288 4.36493 65.1938 6.41317 71.8248 4.36494C74.7753 3.45356 83.3938 4.36494 86.3566 3.04816C86.897 5.14138 83.2062 11.7455 79.0201 12.8505C71.2604 14.8987 80.2899 26.4566 89.3194 24.4083C88.1907 29.2363 82.519 31.6356 79.0201 31.2845C79.6785 33.4303 84.8046 35.0884 92 33.3328C92 38.8923 86.7234 45.944 80.2899 46.0611C82.7824 47.963 85.3126 55.4244 77.7504 61.2765C78.1266 59.9598 76.5653 55.1025 74.6465 54.9855C79.0201 64.0563 68.0155 63.7637 69.0031 73.127C67.5452 71.664 65.7581 66.3971 65.7581 62.5932C64.0651 80.2958 51.5085 73.127 46.4295 86.1479C41.6326 73.127 28.9349 80.2958 27.2419 62.5932C27.2419 66.3971 25.4548 71.664 23.9969 73.127C24.9845 63.7637 13.9799 64.0563 18.3535 54.9855C16.4347 55.1025 14.8734 59.9598 15.2496 61.2765C7.68744 55.4244 10.2176 47.963 12.7101 46.0611C6.27659 45.944 1 38.8923 1 33.3328C8.19535 35.0884 13.3215 33.4303 13.9799 31.2845C10.481 31.6356 4.8093 29.2363 3.68062 24.4083C12.7101 26.4566 21.7396 14.8987 13.9799 12.8505C9.79382 11.7455 6.10302 5.14138 6.64341 3.04816C9.6062 4.36494 18.2247 3.45356 21.1752 4.36494C27.8062 6.41317 28.4712 4.36493 32.0388 3.04816Z" fill="white" stroke="white"/>
<path d="M38.61 38.2341C36.7725 33.7063 30.476 29.0237 26.7766 30.2549C25.6185 32.7735 28.6682 39.2625 38.61 38.2341Z" fill="black"/>
<path d="M54.5147 38.1745C56.3967 33.6649 62.739 29.0446 66.426 30.3121C67.5593 32.842 64.4459 39.3007 54.5147 38.1745Z" fill="black"/>
<path d="M108.376 55H103.228C102.772 55 102.388 54.868 102.076 54.604C101.788 54.316 101.62 53.992 101.572 53.632L98.26 30.7V30.592C98.26 30.376 98.332 30.196 98.476 30.052C98.644 29.884 98.836 29.8 99.052 29.8H105.748C106.54 29.8 106.972 30.124 107.044 30.772L108.268 40.924L109.744 36.424C109.984 35.728 110.392 35.38 110.968 35.38H114.64C115.216 35.38 115.624 35.728 115.864 36.424L117.34 40.888L118.564 30.772C118.636 30.124 119.068 29.8 119.86 29.8H126.556C126.772 29.8 126.952 29.884 127.096 30.052C127.264 30.196 127.348 30.376 127.348 30.592V30.7L124.036 53.632C123.988 53.992 123.808 54.316 123.496 54.604C123.208 54.868 122.836 55 122.38 55H117.232C116.488 55 115.996 54.676 115.756 54.028L112.804 46.648L109.852 54.028C109.612 54.676 109.12 55 108.376 55ZM139.585 47.98H150.673C150.937 47.98 151.165 48.076 151.357 48.268C151.549 48.46 151.645 48.688 151.645 48.952V54.028C151.645 54.292 151.549 54.52 151.357 54.712C151.165 54.904 150.937 55 150.673 55H131.917C131.653 55 131.425 54.904 131.233 54.712C131.041 54.52 130.945 54.292 130.945 54.028V30.772C130.945 30.508 131.041 30.28 131.233 30.088C131.425 29.896 131.653 29.8 131.917 29.8H150.385C150.649 29.8 150.877 29.896 151.069 30.088C151.261 30.28 151.357 30.508 151.357 30.772V35.848C151.357 36.112 151.261 36.34 151.069 36.532C150.877 36.724 150.649 36.82 150.385 36.82H139.585V39.088H149.593C149.857 39.088 150.085 39.184 150.277 39.376C150.469 39.568 150.565 39.796 150.565 40.06V44.74C150.565 45.004 150.469 45.232 150.277 45.424C150.085 45.616 149.857 45.712 149.593 45.712H139.585V47.98ZM179.161 53.812C179.233 53.956 179.269 54.112 179.269 54.28C179.269 54.448 179.185 54.616 179.017 54.784C178.873 54.928 178.693 55 178.477 55H171.097C170.353 55 169.837 54.676 169.549 54.028L166.453 47.152H164.977V54.028C164.977 54.292 164.881 54.52 164.689 54.712C164.497 54.904 164.269 55 164.005 55H156.949C156.685 55 156.457 54.904 156.265 54.712C156.073 54.52 155.977 54.292 155.977 54.028V30.772C155.977 30.508 156.073 30.28 156.265 30.088C156.457 29.896 156.685 29.8 156.949 29.8H167.605C171.061 29.8 173.761 30.58 175.705 32.14C177.649 33.676 178.621 35.896 178.621 38.8C178.621 41.68 177.325 43.948 174.733 45.604L179.161 53.812ZM164.977 36.496V40.312H167.605C168.133 40.312 168.541 40.144 168.829 39.808C169.117 39.448 169.261 39.004 169.261 38.476C169.261 37.948 169.117 37.492 168.829 37.108C168.565 36.7 168.157 36.496 167.605 36.496H164.977ZM191.335 47.98H202.423C202.687 47.98 202.915 48.076 203.107 48.268C203.299 48.46 203.395 48.688 203.395 48.952V54.028C203.395 54.292 203.299 54.52 203.107 54.712C202.915 54.904 202.687 55 202.423 55H183.667C183.403 55 183.175 54.904 182.983 54.712C182.791 54.52 182.695 54.292 182.695 54.028V30.772C182.695 30.508 182.791 30.28 182.983 30.088C183.175 29.896 183.403 29.8 183.667 29.8H202.135C202.399 29.8 202.627 29.896 202.819 30.088C203.011 30.28 203.107 30.508 203.107 30.772V35.848C203.107 36.112 203.011 36.34 202.819 36.532C202.627 36.724 202.399 36.82 202.135 36.82H191.335V39.088H201.343C201.607 39.088 201.835 39.184 202.027 39.376C202.219 39.568 202.315 39.796 202.315 40.06V44.74C202.315 45.004 202.219 45.232 202.027 45.424C201.835 45.616 201.607 45.712 201.343 45.712H191.335V47.98ZM216.763 55H211.615C211.159 55 210.775 54.868 210.463 54.604C210.175 54.316 210.007 53.992 209.959 53.632L206.647 30.7V30.592C206.647 30.376 206.719 30.196 206.863 30.052C207.031 29.884 207.223 29.8 207.439 29.8H214.135C214.927 29.8 215.359 30.124 215.431 30.772L216.655 40.924L218.131 36.424C218.371 35.728 218.779 35.38 219.355 35.38H223.027C223.603 35.38 224.011 35.728 224.251 36.424L225.727 40.888L226.951 30.772C227.023 30.124 227.455 29.8 228.247 29.8H234.943C235.159 29.8 235.339 29.884 235.483 30.052C235.651 30.196 235.735 30.376 235.735 30.592V30.7L232.423 53.632C232.375 53.992 232.195 54.316 231.883 54.604C231.595 54.868 231.223 55 230.767 55H225.619C224.875 55 224.383 54.676 224.143 54.028L221.191 46.648L218.239 54.028C217.999 54.676 217.507 55 216.763 55ZM241.888 32.104C244.096 30.328 247.012 29.44 250.636 29.44C254.26 29.44 257.164 30.34 259.348 32.14C261.556 33.916 262.66 36.424 262.66 39.664V45.28C262.66 48.568 261.568 51.076 259.384 52.804C257.224 54.508 254.308 55.36 250.636 55.36C246.964 55.36 244.036 54.508 241.852 52.804C239.692 51.076 238.612 48.568 238.612 45.28V39.664C238.612 36.4 239.704 33.88 241.888 32.104ZM248.692 47.62C249.172 48.1 249.82 48.34 250.636 48.34C251.452 48.34 252.1 48.1 252.58 47.62C253.06 47.14 253.3 46.408 253.3 45.424V39.376C253.3 38.416 253.06 37.696 252.58 37.216C252.1 36.712 251.452 36.46 250.636 36.46C249.82 36.46 249.172 36.712 248.692 37.216C248.212 37.696 247.972 38.416 247.972 39.376V45.424C247.972 46.408 248.212 47.14 248.692 47.62ZM275.757 47.62H285.729C285.993 47.62 286.221 47.716 286.413 47.908C286.605 48.1 286.701 48.328 286.701 48.592V54.028C286.701 54.292 286.605 54.52 286.413 54.712C286.221 54.904 285.993 55 285.729 55H267.585C267.321 55 267.093 54.904 266.901 54.712C266.709 54.52 266.613 54.292 266.613 54.028V30.772C266.613 30.508 266.709 30.28 266.901 30.088C267.093 29.896 267.321 29.8 267.585 29.8H274.785C275.049 29.8 275.277 29.896 275.469 30.088C275.661 30.28 275.757 30.508 275.757 30.772V47.62ZM290.929 29.8H309.073C309.337 29.8 309.565 29.896 309.757 30.088C309.949 30.28 310.045 30.508 310.045 30.772V36.244C310.045 36.508 309.949 36.736 309.757 36.928C309.565 37.12 309.337 37.216 309.073 37.216H298.777V39.88H308.353C308.617 39.88 308.845 39.976 309.037 40.168C309.229 40.36 309.325 40.588 309.325 40.852V46.288C309.325 46.552 309.229 46.78 309.037 46.972C308.845 47.164 308.617 47.26 308.353 47.26H298.777V54.028C298.777 54.292 298.681 54.52 298.489 54.712C298.297 54.904 298.069 55 297.805 55H290.929C290.665 55 290.437 54.904 290.245 54.712C290.053 54.52 289.957 54.292 289.957 54.028V30.772C289.957 30.508 290.053 30.28 290.245 30.088C290.437 29.896 290.665 29.8 290.929 29.8Z" fill="white"/>
</svg>
