<svg width="93" height="88" viewBox="0 0 93 88" fill="none" xmlns="http://www.w3.org/2000/svg">
<path d="M32.0388 3.04816C35.6064 1.73138 39.093 1 46.4295 1C53.7659 1 57.3936 1.73138 60.9612 3.04816C64.5288 4.36493 65.1938 6.41317 71.8248 4.36494C74.7753 3.45356 83.3938 4.36494 86.3566 3.04816C86.897 5.14138 83.2062 11.7455 79.0201 12.8505C71.2604 14.8987 80.2899 26.4566 89.3194 24.4083C88.1907 29.2363 82.519 31.6356 79.0201 31.2845C79.6785 33.4303 84.8046 35.0884 92 33.3328C92 38.8923 86.7234 45.944 80.2899 46.0611C82.7824 47.963 85.3126 55.4244 77.7504 61.2765C78.1266 59.9598 76.5653 55.1025 74.6465 54.9855C79.0201 64.0563 68.0155 63.7637 69.0031 73.127C67.5452 71.664 65.7581 66.3971 65.7581 62.5932C64.0651 80.2958 51.5085 73.127 46.4295 86.1479C41.6326 73.127 28.9349 80.2958 27.2419 62.5932C27.2419 66.3971 25.4548 71.664 23.9969 73.127C24.9845 63.7637 13.9799 64.0563 18.3535 54.9855C16.4347 55.1025 14.8734 59.9598 15.2496 61.2765C7.68744 55.4244 10.2176 47.963 12.7101 46.0611C6.27659 45.944 1 38.8923 1 33.3328C8.19535 35.0884 13.3215 33.4303 13.9799 31.2845C10.481 31.6356 4.8093 29.2363 3.68062 24.4083C12.7101 26.4566 21.7396 14.8987 13.9799 12.8505C9.79382 11.7455 6.10302 5.14138 6.64341 3.04816C9.6062 4.36494 18.2247 3.45356 21.1752 4.36494C27.8062 6.41317 28.4712 4.36493 32.0388 3.04816Z" fill="white" stroke="white"/>
<path d="M38.61 38.2341C36.7725 33.7063 30.476 29.0237 26.7766 30.2549C25.6185 32.7735 28.6682 39.2625 38.61 38.2341Z" fill="black"/>
<path d="M54.5147 38.1745C56.3967 33.6649 62.739 29.0446 66.426 30.3121C67.5593 32.842 64.4459 39.3007 54.5147 38.1745Z" fill="black"/>
</svg>
