<svg width="201" height="53" viewBox="0 0 201 53" fill="none" xmlns="http://www.w3.org/2000/svg">
<path d="M19.4146 2.20271C21.5096 1.42948 23.557 1 27.865 1C32.1731 1 34.3033 1.42948 36.3983 2.20271C38.4932 2.97593 38.8837 4.17869 42.7775 2.97594C44.5101 2.44076 49.571 2.97594 51.3108 2.20271C51.6281 3.43187 49.4608 7.30992 47.0027 7.95875C42.4461 9.1615 47.7483 15.9485 53.0506 14.7457C52.3878 17.5808 49.0573 18.9897 47.0027 18.7835C47.3893 20.0435 50.3995 21.0172 54.6247 19.9862C54.6247 23.2508 51.5262 27.3917 47.7483 27.4605C49.212 28.5773 50.6977 32.9588 46.2571 36.3952C46.478 35.622 45.5612 32.7697 44.4345 32.701C47.0027 38.0275 40.5406 37.8557 41.1206 43.354C40.2645 42.4948 39.2151 39.4021 39.2151 37.1684C38.2209 47.5636 30.8475 43.354 27.865 51C25.0482 43.354 17.592 47.5636 16.5978 37.1684C16.5978 39.4021 15.5484 42.4948 14.6923 43.354C15.2723 37.8557 8.81018 38.0275 11.3784 32.701C10.2517 32.7697 9.33487 35.622 9.5558 36.3952C5.11519 32.9588 6.60091 28.5773 8.06455 27.4605C4.28672 27.3917 1.18823 23.2508 1.18823 19.9862C5.41344 21.0172 8.42356 20.0435 8.81018 18.7835C6.75558 18.9897 3.42511 17.5808 2.76233 14.7457C8.06455 15.9485 13.3668 9.1615 8.81018 7.95875C6.35208 7.30992 4.1848 3.43187 4.50212 2.20271C6.24191 2.97594 11.3028 2.44076 13.0354 2.97594C16.9292 4.17869 17.3197 2.97593 19.4146 2.20271Z" fill="white" stroke="white"/>
<path d="M23.2735 22.8644C22.1945 20.2055 18.4971 17.4559 16.3248 18.1788C15.6447 19.6578 17.4355 23.4683 23.2735 22.8644Z" fill="black"/>
<path d="M32.6128 22.8294C33.718 20.1813 37.4422 17.4681 39.6073 18.2125C40.2728 19.698 38.4445 23.4907 32.6128 22.8294Z" fill="black"/>
<path d="M65.584 36H62.152C61.848 36 61.592 35.912 61.384 35.736C61.192 35.544 61.08 35.328 61.048 35.088L58.84 19.8V19.728C58.84 19.584 58.888 19.464 58.984 19.368C59.096 19.256 59.224 19.2 59.368 19.2H63.832C64.36 19.2 64.648 19.416 64.696 19.848L65.512 26.616L66.496 23.616C66.656 23.152 66.928 22.92 67.312 22.92H69.76C70.144 22.92 70.416 23.152 70.576 23.616L71.56 26.592L72.376 19.848C72.424 19.416 72.712 19.2 73.24 19.2H77.704C77.848 19.2 77.968 19.256 78.064 19.368C78.176 19.464 78.232 19.584 78.232 19.728V19.8L76.024 35.088C75.992 35.328 75.872 35.544 75.664 35.736C75.472 35.912 75.224 36 74.92 36H71.488C70.992 36 70.664 35.784 70.504 35.352L68.536 30.432L66.568 35.352C66.408 35.784 66.08 36 65.584 36ZM86.3903 31.32H93.7823C93.9583 31.32 94.1103 31.384 94.2383 31.512C94.3663 31.64 94.4303 31.792 94.4303 31.968V35.352C94.4303 35.528 94.3663 35.68 94.2383 35.808C94.1103 35.936 93.9583 36 93.7823 36H81.2783C81.1023 36 80.9503 35.936 80.8223 35.808C80.6943 35.68 80.6303 35.528 80.6303 35.352V19.848C80.6303 19.672 80.6943 19.52 80.8223 19.392C80.9503 19.264 81.1023 19.2 81.2783 19.2H93.5903C93.7663 19.2 93.9183 19.264 94.0463 19.392C94.1743 19.52 94.2383 19.672 94.2383 19.848V23.232C94.2383 23.408 94.1743 23.56 94.0463 23.688C93.9183 23.816 93.7663 23.88 93.5903 23.88H86.3903V25.392H93.0623C93.2383 25.392 93.3903 25.456 93.5183 25.584C93.6463 25.712 93.7103 25.864 93.7103 26.04V29.16C93.7103 29.336 93.6463 29.488 93.5183 29.616C93.3903 29.744 93.2383 29.808 93.0623 29.808H86.3903V31.32ZM112.774 35.208C112.822 35.304 112.846 35.408 112.846 35.52C112.846 35.632 112.79 35.744 112.678 35.856C112.582 35.952 112.462 36 112.318 36H107.398C106.902 36 106.558 35.784 106.366 35.352L104.302 30.768H103.318V35.352C103.318 35.528 103.254 35.68 103.126 35.808C102.998 35.936 102.846 36 102.67 36H97.9658C97.7898 36 97.6378 35.936 97.5098 35.808C97.3818 35.68 97.3178 35.528 97.3178 35.352V19.848C97.3178 19.672 97.3818 19.52 97.5098 19.392C97.6378 19.264 97.7898 19.2 97.9658 19.2H105.07C107.374 19.2 109.174 19.72 110.47 20.76C111.766 21.784 112.414 23.264 112.414 25.2C112.414 27.12 111.55 28.632 109.822 29.736L112.774 35.208ZM103.318 23.664V26.208H105.07C105.422 26.208 105.694 26.096 105.886 25.872C106.078 25.632 106.174 25.336 106.174 24.984C106.174 24.632 106.078 24.328 105.886 24.072C105.71 23.8 105.438 23.664 105.07 23.664H103.318ZM120.89 31.32H128.282C128.458 31.32 128.61 31.384 128.738 31.512C128.866 31.64 128.93 31.792 128.93 31.968V35.352C128.93 35.528 128.866 35.68 128.738 35.808C128.61 35.936 128.458 36 128.282 36H115.778C115.602 36 115.45 35.936 115.322 35.808C115.194 35.68 115.13 35.528 115.13 35.352V19.848C115.13 19.672 115.194 19.52 115.322 19.392C115.45 19.264 115.602 19.2 115.778 19.2H128.09C128.266 19.2 128.418 19.264 128.546 19.392C128.674 19.52 128.738 19.672 128.738 19.848V23.232C128.738 23.408 128.674 23.56 128.546 23.688C128.418 23.816 128.266 23.88 128.09 23.88H120.89V25.392H127.562C127.738 25.392 127.89 25.456 128.018 25.584C128.146 25.712 128.21 25.864 128.21 26.04V29.16C128.21 29.336 128.146 29.488 128.018 29.616C127.89 29.744 127.738 29.808 127.562 29.808H120.89V31.32ZM137.842 36H134.41C134.106 36 133.85 35.912 133.642 35.736C133.45 35.544 133.338 35.328 133.306 35.088L131.098 19.8V19.728C131.098 19.584 131.146 19.464 131.242 19.368C131.354 19.256 131.482 19.2 131.626 19.2H136.09C136.618 19.2 136.906 19.416 136.954 19.848L137.77 26.616L138.754 23.616C138.914 23.152 139.186 22.92 139.57 22.92H142.018C142.402 22.92 142.674 23.152 142.834 23.616L143.818 26.592L144.634 19.848C144.682 19.416 144.97 19.2 145.498 19.2H149.962C150.106 19.2 150.226 19.256 150.322 19.368C150.434 19.464 150.49 19.584 150.49 19.728V19.8L148.282 35.088C148.25 35.328 148.13 35.544 147.922 35.736C147.73 35.912 147.482 36 147.178 36H143.746C143.25 36 142.922 35.784 142.762 35.352L140.794 30.432L138.826 35.352C138.666 35.784 138.338 36 137.842 36ZM154.592 20.736C156.064 19.552 158.008 18.96 160.424 18.96C162.84 18.96 164.776 19.56 166.232 20.76C167.704 21.944 168.44 23.616 168.44 25.776V29.52C168.44 31.712 167.712 33.384 166.256 34.536C164.816 35.672 162.872 36.24 160.424 36.24C157.976 36.24 156.024 35.672 154.568 34.536C153.128 33.384 152.408 31.712 152.408 29.52V25.776C152.408 23.6 153.136 21.92 154.592 20.736ZM159.128 31.08C159.448 31.4 159.88 31.56 160.424 31.56C160.968 31.56 161.4 31.4 161.72 31.08C162.04 30.76 162.2 30.272 162.2 29.616V25.584C162.2 24.944 162.04 24.464 161.72 24.144C161.4 23.808 160.968 23.64 160.424 23.64C159.88 23.64 159.448 23.808 159.128 24.144C158.808 24.464 158.648 24.944 158.648 25.584V29.616C158.648 30.272 158.808 30.76 159.128 31.08ZM177.172 31.08H183.82C183.996 31.08 184.148 31.144 184.276 31.272C184.404 31.4 184.468 31.552 184.468 31.728V35.352C184.468 35.528 184.404 35.68 184.276 35.808C184.148 35.936 183.996 36 183.82 36H171.724C171.548 36 171.396 35.936 171.268 35.808C171.14 35.68 171.076 35.528 171.076 35.352V19.848C171.076 19.672 171.14 19.52 171.268 19.392C171.396 19.264 171.548 19.2 171.724 19.2H176.524C176.7 19.2 176.852 19.264 176.98 19.392C177.108 19.52 177.172 19.672 177.172 19.848V31.08ZM187.286 19.2H199.382C199.558 19.2 199.71 19.264 199.838 19.392C199.966 19.52 200.03 19.672 200.03 19.848V23.496C200.03 23.672 199.966 23.824 199.838 23.952C199.71 24.08 199.558 24.144 199.382 24.144H192.518V25.92H198.902C199.078 25.92 199.23 25.984 199.358 26.112C199.486 26.24 199.55 26.392 199.55 26.568V30.192C199.55 30.368 199.486 30.52 199.358 30.648C199.23 30.776 199.078 30.84 198.902 30.84H192.518V35.352C192.518 35.528 192.454 35.68 192.326 35.808C192.198 35.936 192.046 36 191.87 36H187.286C187.11 36 186.958 35.936 186.83 35.808C186.702 35.68 186.638 35.528 186.638 35.352V19.848C186.638 19.672 186.702 19.52 186.83 19.392C186.958 19.264 187.11 19.2 187.286 19.2Z" fill="white"/>
</svg>
