<svg width="55" height="53" viewBox="0 0 55 53" fill="none" xmlns="http://www.w3.org/2000/svg">
<path d="M19.2264 2.20271C21.3213 1.42948 23.3687 1 27.6768 1C31.9848 1 34.1151 1.42948 36.21 2.20271C38.305 2.97593 38.6955 4.17869 42.5893 2.97594C44.3219 2.44076 49.3828 2.97594 51.1225 2.20271C51.4399 3.43187 49.2726 7.30992 46.8145 7.95875C42.2579 9.1615 47.5601 15.9485 52.8623 14.7457C52.1996 17.5808 48.8691 18.9897 46.8145 18.7835C47.2011 20.0435 50.2112 21.0172 54.4364 19.9862C54.4364 23.2508 51.3379 27.3917 47.5601 27.4605C49.0237 28.5773 50.5095 32.9588 46.0689 36.3952C46.2898 35.622 45.3729 32.7697 44.2462 32.701C46.8145 38.0275 40.3524 37.8557 40.9323 43.354C40.0763 42.4948 39.0269 39.4021 39.0269 37.1684C38.0327 47.5636 30.6593 43.354 27.6768 51C24.86 43.354 17.4037 47.5636 16.4096 37.1684C16.4096 39.4021 15.3602 42.4948 14.5041 43.354C15.084 37.8557 8.62195 38.0275 11.1902 32.701C10.0635 32.7697 9.14664 35.622 9.36757 36.3952C4.92696 32.9588 6.41268 28.5773 7.87632 27.4605C4.09848 27.3917 1 23.2508 1 19.9862C5.22521 21.0172 8.23533 20.0435 8.62195 18.7835C6.56735 18.9897 3.23687 17.5808 2.5741 14.7457C7.87632 15.9485 13.1785 9.1615 8.62195 7.95875C6.16385 7.30992 3.99656 3.43187 4.31389 2.20271C6.05368 2.97594 11.1146 2.44076 12.8471 2.97594C16.741 4.17869 17.1314 2.97593 19.2264 2.20271Z" fill="white" stroke="white"/>
<path d="M23.085 22.8644C22.006 20.2056 18.3086 17.4559 16.1363 18.1789C15.4562 19.6578 17.2471 23.4683 23.085 22.8644Z" fill="black"/>
<path d="M32.4244 22.8294C33.5295 20.1813 37.2537 17.4681 39.4188 18.2125C40.0843 19.698 38.2561 23.4907 32.4244 22.8294Z" fill="black"/>
</svg>
