<svg width="34" height="41" viewBox="0 0 34 41" fill="none" xmlns="http://www.w3.org/2000/svg">
<g filter="url(#filter0_f_197_5)">
<path d="M11.6048 28.7843C6.73778 20.7897 6.7145 10.3221 7.19758 6.94282C10.525 7.70535 20.2862 11.4856 26 18.8987C21.6235 17.5157 18.0592 17.7692 15.7306 19.3683C13.4019 20.9675 11.8856 24.203 11.6048 28.7843Z" fill="black"/>
<path d="M11.6048 28.7843C6.73778 20.7897 6.7145 10.3221 7.19758 6.94282C10.525 7.70535 20.2862 11.4856 26 18.8987C21.6235 17.5157 18.0592 17.7692 15.7306 19.3683C13.4019 20.9675 11.8856 24.203 11.6048 28.7843Z" stroke="black" stroke-width="2"/>
</g>
<g filter="url(#filter1_d_197_5)">
<path d="M11.6048 28.7843C6.73778 20.7897 6.7145 10.3221 7.19758 6.94282C10.525 7.70535 20.2862 11.4856 26 18.8987C21.6235 17.5157 18.0592 17.7692 15.7306 19.3683C13.4019 20.9675 11.8856 24.203 11.6048 28.7843Z" fill="white"/>
<path d="M11.6048 28.7843C6.73778 20.7897 6.7145 10.3221 7.19758 6.94282C10.525 7.70535 20.2862 11.4856 26 18.8987C21.6235 17.5157 18.0592 17.7692 15.7306 19.3683C13.4019 20.9675 11.8856 24.203 11.6048 28.7843Z" stroke="black" stroke-width="2"/>
</g>
<defs>
<filter id="filter0_f_197_5" x="0.99707" y="0.725342" width="32.7407" height="36.3013" filterUnits="userSpaceOnUse" color-interpolation-filters="sRGB">
<feFlood flood-opacity="0" result="BackgroundImageFix"/>
<feBlend mode="normal" in="SourceGraphic" in2="BackgroundImageFix" result="shape"/>
<feGaussianBlur stdDeviation="2.5" result="effect1_foregroundBlur_197_5"/>
</filter>
<filter id="filter1_d_197_5" x="1.99707" y="5.72534" width="30.7407" height="34.3013" filterUnits="userSpaceOnUse" color-interpolation-filters="sRGB">
<feFlood flood-opacity="0" result="BackgroundImageFix"/>
<feColorMatrix in="SourceAlpha" type="matrix" values="0 0 0 0 0 0 0 0 0 0 0 0 0 0 0 0 0 0 127 0" result="hardAlpha"/>
<feOffset dy="4"/>
<feGaussianBlur stdDeviation="2"/>
<feComposite in2="hardAlpha" operator="out"/>
<feColorMatrix type="matrix" values="0 0 0 0 0 0 0 0 0 0 0 0 0 0 0 0 0 0 0.25 0"/>
<feBlend mode="normal" in2="BackgroundImageFix" result="effect1_dropShadow_197_5"/>
<feBlend mode="normal" in="SourceGraphic" in2="effect1_dropShadow_197_5" result="shape"/>
</filter>
</defs>
</svg>
