<svg width="55" height="55" viewBox="0 0 55 55" fill="none" xmlns="http://www.w3.org/2000/svg">
<rect width="55" height="55" rx="10" fill="#2C3036"/>
<path d="M27.4999 6.37671C39.1661 6.37671 48.6231 15.8337 48.6231 27.4999C48.6231 39.166 39.1661 48.6231 27.4999 48.6231C15.8337 48.6231 6.37671 39.166 6.37671 27.4999C6.37671 15.8337 15.8337 6.37671 27.4999 6.37671ZM34.7865 36.1102C35.1747 34.9185 36.9956 23.0376 37.2201 20.6965C37.2878 19.9871 37.0643 19.5162 36.6251 19.3059C36.0944 19.0506 35.3084 19.1782 34.3957 19.5074C33.1451 19.958 17.1539 26.7483 16.2298 27.1408C15.3541 27.5131 14.525 27.9188 14.525 28.5068C14.525 28.9204 14.7705 29.1528 15.4465 29.3939C16.1497 29.6448 17.9214 30.1816 18.9679 30.4703C19.9756 30.7485 21.1225 30.5073 21.7649 30.1077C22.4462 29.6844 30.311 24.4221 30.8752 23.9609C31.4394 23.4997 31.8891 24.0903 31.4279 24.5523C30.9667 25.0135 25.5689 30.2529 24.8569 30.9782C23.9926 31.8592 24.606 32.7719 25.186 33.1371C25.8479 33.5543 30.6103 36.7483 31.3276 37.2606C32.0449 37.7728 32.7719 38.0051 33.4382 38.0051C34.1044 38.0051 34.4547 37.1285 34.7865 36.1102Z" fill="white"/>
</svg>
