<svg width="34" height="34" viewBox="0 0 34 34" fill="none" xmlns="http://www.w3.org/2000/svg">
<path d="M17 0C13.6378 0 10.3509 0.997029 7.55531 2.86501C4.75968 4.733 2.58075 7.38804 1.29406 10.4944C0.00737275 13.6006 -0.329292 17.0189 0.326653 20.3165C0.982598 23.6143 2.6017 26.6433 4.97919 29.0209C7.35669 31.3984 10.3858 33.0174 13.6835 33.6734C16.9811 34.3294 20.3994 33.9926 23.5057 32.7059C26.612 31.4192 29.267 29.2404 31.1351 26.4448C33.003 23.6491 34 20.3624 34 17C34 12.4913 32.2088 8.16732 29.0209 4.9792C25.8328 1.79106 21.5086 0 17 0ZM25.3513 11.645L22.5675 24.7988C22.355 25.7338 21.8025 25.9463 21.0163 25.5213L16.7663 22.3763L14.6413 24.3525C14.5412 24.4832 14.4126 24.5895 14.2653 24.6632C14.1181 24.7367 13.9559 24.7758 13.7913 24.7775L14.0888 20.5275L21.9513 13.4088C22.3125 13.1113 21.9513 12.9413 21.4413 13.2388L11.7938 19.295L7.54375 17.9775C6.63 17.7013 6.60875 17.0638 7.735 16.6388L24.1188 10.2638C24.9263 10.03 25.6063 10.4975 25.3513 11.645Z" fill="white"/>
</svg>
