<svg width="49" height="49" viewBox="0 0 49 49" fill="none" xmlns="http://www.w3.org/2000/svg">
<g clip-path="url(#clip0_129_38)">
<path d="M49 24.5C49 38.0301 38.0301 49 24.5 49C10.9699 49 0 38.0301 0 24.5C0 10.9699 10.9699 0 24.5 0C38.0301 0 49 10.9699 49 24.5Z" fill="url(#paint0_linear_129_38)"/>
<path opacity="0.05" d="M7.4958 23.8458C17.4857 19.3195 29.2187 14.4084 31.0256 13.6979C35.0093 12.1312 36.7464 13.7322 36.4744 16.2864C36.14 19.4162 34.5548 28.5241 33.5797 35.0497C33.0089 38.868 30.9411 40.0379 28.6075 38.5569C26.8373 37.4335 20.7515 33.4486 19.1505 32.0864C18.059 31.1579 17.2983 30.1166 18.0725 29.0558C18.2991 28.7458 18.8785 28.1211 19.2007 27.8099C20.8165 26.2444 20.5984 25.9075 18.6445 27.3052C18.4118 27.4718 17.0618 28.4506 16.5069 28.8206C15.1472 29.7271 13.8964 29.7761 11.776 29.0558C10.0414 28.4665 8.37535 28.0121 7.3243 27.5576C5.87268 26.9292 5.31653 24.8332 7.4958 23.8458Z" fill="black"/>
<path opacity="0.07" d="M8.3741 23.999C17.6498 19.8524 29.057 15.1006 30.7254 14.4281C34.7238 12.8135 36.1951 13.7715 35.7651 16.8915C35.3657 19.7801 33.9484 28.7177 32.9549 34.7091C32.3694 38.2359 30.6593 39.0126 28.4322 37.572C27.037 36.6728 21.4216 32.9733 20.0594 31.8966C19.0059 31.0648 17.9144 30.1044 19.1896 28.714C19.6159 28.2497 21.9704 25.9774 23.7307 24.2869C24.7511 23.3056 24.3873 22.8218 23.1562 23.6646C20.8985 25.2117 17.2051 27.6605 16.5461 28.1052C15.2904 28.9504 14.1108 29.1538 12.0577 28.5082C10.4394 27.9986 8.87635 27.5049 8.06172 27.1877C6.24137 26.4821 6.21687 24.9631 8.3741 23.999Z" fill="black"/>
<path d="M9.25236 24.1533C17.8151 20.3864 28.8952 15.7939 30.4253 15.1582C34.4371 13.4946 35.6683 13.8131 35.0545 17.4979C34.6135 20.1464 33.342 28.9137 32.3277 34.371C31.7262 37.6075 30.3763 37.9909 28.2546 36.5907C27.2341 35.917 22.083 32.5103 20.9646 31.7103C19.9442 30.9815 18.5366 30.1044 20.3019 28.3771C20.9303 27.7622 25.0475 23.8299 28.2558 20.7699C28.676 20.3681 28.148 19.7078 27.6629 20.03C23.3386 22.8977 17.3435 26.8777 16.5803 27.3959C15.4276 28.1787 14.3202 28.5376 12.3332 27.9668C10.8314 27.5356 9.36506 27.0211 8.79421 26.8251C6.59534 26.0705 7.11719 25.0929 9.25236 24.1533Z" fill="white"/>
</g>
<defs>
<linearGradient id="paint0_linear_129_38" x1="7.17605" y1="7.17605" x2="41.8239" y2="41.8239" gradientUnits="userSpaceOnUse">
<stop stop-color="#33BEF0"/>
<stop offset="1" stop-color="#0A85D9"/>
</linearGradient>
<clipPath id="clip0_129_38">
<rect width="49" height="49" fill="white"/>
</clipPath>
</defs>
</svg>
