<svg width="55" height="55" viewBox="0 0 55 55" fill="none" xmlns="http://www.w3.org/2000/svg">
<rect width="55" height="55" rx="10" fill="#2C3036"/>
<path d="M43.2791 9.56567H11.1223C9.82174 9.56567 8.76831 10.6191 8.76831 11.917V44.0738C8.76831 45.3717 9.82174 46.4252 11.1223 46.4252H43.2765C44.5744 46.4252 45.6278 45.3717 45.6278 44.0738V11.917C45.6304 10.6165 44.577 9.56567 43.2791 9.56567ZM39.3437 32.0258C40.0174 32.7124 41.4791 33.8647 41.2138 35.0378C40.9693 36.1146 39.3619 35.7218 37.8013 35.7843C36.0195 35.8597 34.9635 35.8987 33.8919 35.0378C33.3873 34.6294 33.0908 34.1456 32.607 33.6046C32.1674 33.1156 31.6134 32.239 30.859 32.2729C29.5039 32.3405 29.9279 34.2288 29.4467 35.5164C21.914 36.7024 18.889 32.0492 16.2203 27.5337C14.9276 25.3463 13.06 20.6488 13.06 20.6488L18.387 20.6305C18.387 20.6305 20.0959 23.7388 20.5485 24.5399C20.9334 25.2214 21.3574 25.7624 21.7944 26.3711C22.1611 26.8757 22.7412 27.8641 23.3758 27.7834C24.4084 27.6508 24.5957 23.6452 23.9559 22.303C23.701 21.7594 23.0897 21.5695 22.4576 21.3849C22.6709 20.0375 28.4323 19.7566 29.3634 20.8022C30.716 22.3212 28.4271 26.5505 30.279 27.7834C32.8801 26.4205 35.1014 20.7138 35.1014 20.7138L41.3387 20.7528C41.3387 20.7528 40.3633 23.8376 39.3411 25.2058C38.7454 26.0069 36.7686 27.7912 36.8467 29.1152C36.9091 30.1634 38.5165 31.183 39.3437 32.0258Z" fill="white"/>
</svg>
