<svg width="35" height="34" viewBox="0 0 35 34" fill="none" xmlns="http://www.w3.org/2000/svg">
<path d="M17.6001 0C8.21114 0 0.600098 7.61104 0.600098 17C0.600098 26.389 8.21114 34 17.6001 34C26.9891 34 34.6001 26.389 34.6001 17C34.6001 7.61104 26.9891 0 17.6001 0ZM24.138 19.1799C24.138 19.1799 25.6415 20.6639 26.0116 21.3527C26.0222 21.3669 26.0275 21.381 26.031 21.3881C26.1816 21.6414 26.217 21.8379 26.1426 21.9849C26.0186 22.2293 25.5936 22.3497 25.4484 22.3603H22.7922C22.608 22.3603 22.222 22.3125 21.7545 21.9902C21.395 21.7387 21.0408 21.3261 20.6955 20.9242C20.1802 20.3256 19.734 19.8085 19.2842 19.8085C19.227 19.8084 19.1702 19.8174 19.1159 19.8351C18.7759 19.9449 18.3403 20.4301 18.3403 21.7228C18.3403 22.1266 18.0216 22.3585 17.7967 22.3585H16.5801C16.1657 22.3585 14.0071 22.2133 12.0946 20.1964C9.75353 17.726 7.64624 12.7712 7.62853 12.7252C7.49572 12.4047 7.7702 12.2329 8.06947 12.2329H10.7523C11.11 12.2329 11.2269 12.4507 11.3083 12.6437C11.404 12.8686 11.7546 13.7629 12.3301 14.7687C13.2633 16.4085 13.8353 17.0744 14.294 17.0744C14.38 17.0734 14.4644 17.0515 14.5401 17.0106C15.1386 16.6777 15.0271 14.5439 15.0005 14.1011C15.0005 14.0179 14.9987 13.1467 14.6924 12.7287C14.4728 12.4259 14.0992 12.3108 13.8725 12.2683C13.9642 12.1417 14.0851 12.0391 14.2249 11.9691C14.6357 11.7636 15.3759 11.7335 16.1108 11.7335H16.5199C17.3168 11.7442 17.5222 11.7955 17.8108 11.8681C18.3952 12.008 18.4076 12.3852 18.3562 13.6761C18.3403 14.0427 18.3244 14.4571 18.3244 14.9458C18.3244 15.0521 18.3191 15.1654 18.3191 15.2858C18.3013 15.9428 18.2801 16.6883 18.7441 16.9947C18.8046 17.0326 18.8745 17.0529 18.9459 17.0531C19.1071 17.0531 19.5923 17.0531 20.9062 14.7989C21.3115 14.0733 21.6636 13.3193 21.9599 12.5428C21.9865 12.4968 22.0644 12.3551 22.1565 12.3002C22.2244 12.2656 22.2998 12.2479 22.376 12.2489H25.5299C25.8734 12.2489 26.109 12.3002 26.1532 12.433C26.2311 12.6437 26.1391 13.2866 24.6994 15.2362L24.0566 16.0845C22.7515 17.7951 22.7515 17.8819 24.138 19.1799Z" fill="white"/>
</svg>
