<svg width="49" height="49" viewBox="0 0 49 49" fill="none" xmlns="http://www.w3.org/2000/svg">
<g clip-path="url(#clip0_130_44)">
<path d="M46.2778 0H2.72222C1.21819 0 0 1.21819 0 2.72222V46.2778C0 47.7818 1.21819 49 2.72222 49H46.2778C47.7818 49 49 47.7818 49 46.2778V2.72222C49 1.21819 47.7818 0 46.2778 0Z" fill="url(#paint0_linear_130_44)"/>
<path opacity="0.05" d="M42.1088 15.028C42.1714 14.8225 42.2014 14.6319 42.1932 14.4618C42.1728 13.9691 41.8339 13.6111 41.0362 13.6111H35.3822C34.4825 13.6111 34.0674 14.1556 33.8251 14.7014C33.8251 14.7014 31.484 19.7157 30.9368 20.7569C30.1065 21.6294 29.5689 22.6094 29.1197 22.6094C28.8788 22.6094 28.5834 22.8476 28.5834 22.0486V14.9913C28.5834 14.0467 28.348 13.6111 27.5871 13.6111H18.5371C17.9831 13.6111 17.6946 14.0467 17.6946 14.4836C17.6946 15.3914 18.9168 18.3314 19.0557 20.8754V22.0936C19.0557 22.9592 19.1931 23.7813 18.8692 23.7813C18.4745 23.7813 17.0943 20.7297 15.9278 15.0648C15.5821 14.0113 15.2364 13.6111 14.3367 13.6111H8.01705C6.97853 13.6111 6.80566 14.1202 6.80566 14.6646C6.80566 16.8587 7.95444 23.2287 12.4121 29.3292C15.6447 33.7528 20.9326 36.75 24.7029 36.75C26.3866 36.75 28.5821 36.7228 28.5821 34.1911C28.5821 31.6594 28.5549 30.3324 28.8053 30.3324C29.1292 30.3324 29.2817 30.4807 31.3234 32.8627C33.6794 35.608 34.2552 36.75 35.6054 36.75H40.8729C41.7005 36.75 42.1755 36.4029 42.1945 35.7292C42.1945 33.9938 41.6855 32.9893 39.132 29.2462C38.295 28.2349 36.7501 26.5294 36.7501 25.8434C36.7501 25.0717 41.0907 19.2066 42.1088 15.028Z" fill="black"/>
<path opacity="0.07" d="M41.4281 15.7086C41.4907 15.503 41.5207 15.3125 41.5125 15.1424C41.4921 14.6496 41.1532 14.2917 40.3556 14.2917H35.7468C34.8471 14.2917 34.432 14.8361 34.1897 15.3819C34.1897 15.3819 31.9085 20.1757 30.3541 22.2038C29.5238 23.0763 29.0447 23.5554 28.5956 23.5554C28.3546 23.5554 27.9028 23.5295 27.9028 22.7305V15.6732C27.9028 14.7286 27.6673 14.293 26.9064 14.293H19.2175C18.6635 14.293 18.375 14.7286 18.375 15.1655C18.375 16.0734 19.5973 17.6522 19.7361 20.1962V23.2709C19.7361 24.3026 19.7007 24.8226 19.3141 24.8226C18.5111 24.8226 16.6287 21.2551 15.2471 15.7467C14.9014 14.6932 14.5557 14.293 13.656 14.293H8.69747C7.65895 14.293 7.48608 14.8021 7.48608 15.3465C7.48608 16.9349 8.46881 22.7714 12.9264 28.8719C16.1591 33.2955 20.9325 36.0708 24.7028 36.0708C26.6859 36.0708 27.9014 35.77 27.9014 34.0468V31.0769C27.9028 29.9866 28.013 29.4585 28.5016 29.4585C28.9236 29.4585 29.5279 29.7022 31.5696 32.0841C33.9243 34.8308 34.4266 36.0694 35.7768 36.0694H40.1922C41.0198 36.0694 41.4948 35.7224 41.5139 35.0486C41.5139 33.7065 40.5788 32.0052 38.4514 29.2544C37.6143 28.243 36.0694 26.6315 36.0694 25.8516C36.0694 25.0717 39.9418 20.4983 41.4281 15.7086Z" fill="black"/>
<path d="M40.7477 16.3891C40.8103 16.1836 40.8402 15.9931 40.832 15.8229C40.8116 15.3302 40.4727 14.9722 39.6751 14.9722H36.1117C35.212 14.9722 34.7969 15.5167 34.5546 16.0625C34.5546 16.0625 32.3333 20.6345 29.773 23.6493C28.9427 24.5218 28.5208 24.5 28.0716 24.5C27.8307 24.5 27.2223 24.2087 27.2223 23.4098V16.3524C27.2223 15.4078 26.9868 14.9722 26.226 14.9722H19.8982C19.3442 14.9722 19.0556 15.4078 19.0556 15.8447C19.0556 16.7526 20.2779 16.9703 20.4167 19.5143V24.4456C20.4167 25.6433 20.2085 25.8611 19.7593 25.8611C18.5479 25.8611 16.1633 21.7778 14.5667 16.4259C14.221 15.3724 13.8752 14.9722 12.9756 14.9722H9.37814C8.33961 14.9722 8.16675 15.4813 8.16675 16.0257C8.16675 17.0071 8.98341 22.3127 13.4411 28.4132C16.6737 32.8368 20.9326 35.3889 24.7029 35.3889C26.9868 35.3889 27.2209 34.8077 27.2209 33.8998V29.8546C27.2223 28.7644 27.4714 28.5833 28.1982 28.5833C28.7168 28.5833 29.7744 28.9236 31.8161 31.3056C34.1708 34.0523 34.5982 35.3889 35.9484 35.3889H39.5118C40.3393 35.3889 40.8144 35.0418 40.8334 34.3681C40.8375 34.1966 40.813 34.0046 40.7572 33.791C40.4931 33.007 39.2817 31.0905 37.7709 29.2639C36.9338 28.2526 36.1076 27.2508 35.7279 26.7064C35.4734 26.3511 35.3767 26.1007 35.389 25.8611C35.4012 25.6093 35.5319 25.3698 35.7279 25.0349C35.6925 25.0349 40.2985 18.5683 40.7477 16.3891Z" fill="white"/>
</g>
<defs>
<linearGradient id="paint0_linear_130_44" x1="16.5892" y1="0.00136144" x2="31.9126" y2="47.4551" gradientUnits="userSpaceOnUse">
<stop stop-color="#33BEF0"/>
<stop offset="1" stop-color="#0A85D9"/>
</linearGradient>
<clipPath id="clip0_130_44">
<rect width="49" height="49" fill="white"/>
</clipPath>
</defs>
</svg>
